<mxfile host="seqgen" agent="seqgen" version="26.2.2">
  <diagram name="Diagram" id="test-1">
    <mxGraphModel dx="0" dy="0" grid="1" gridSize="10" guides="1" tooltips="1" connect="1" arrows="1" fold="1" page="0" pageScale="1" pageWidth="851" pageHeight="1100" background="#ffffff" math="0" shadow="0">
      <root>
        <mxCell id="0" />
        <mxCell id="1" parent="0" />
        <mxCell id="test-2" value="A" parent="1" style="shape=umlLifeline;perimeter=lifelinePerimeter;whiteSpace=wrap;html=1;container=1;dropTarget=0;collapsible=0;recursiveResize=0;outlineConnect=0;portConstraint=eastwest;newEdgeStyle={&quot;curved&quot;:0,&quot;rounded&quot;:0};size=40;" vertex="1">
          <mxGeometry x="0" y="0" width="160" height="805" as="geometry" />
        </mxCell>
        <mxCell id="test-3" value="B" parent="1" style="shape=umlLifeline;perimeter=lifelinePerimeter;whiteSpace=wrap;html=1;container=1;dropTarget=0;collapsible=0;recursiveResize=0;outlineConnect=0;portConstraint=eastwest;newEdgeStyle={&quot;curved&quot;:0,&quot;rounded&quot;:0};size=40;" vertex="1">
          <mxGeometry x="200" y="0" width="160" height="805" as="geometry" />
        </mxCell>
        <mxCell id="test-4" value="C" parent="1" style="shape=umlLifeline;perimeter=lifelinePerimeter;whiteSpace=wrap;html=1;container=1;dropTarget=0;collapsible=0;recursiveResize=0;outlineConnect=0;portConstraint=eastwest;newEdgeStyle={&quot;curved&quot;:0,&quot;rounded&quot;:0};size=40;" vertex="1">
          <mxGeometry x="400" y="0" width="160" height="805" as="geometry" />
        </mxCell>
        <mxCell id="test-5" value="" parent="1" style="ellipse;html=1;aspect=fixed;fillColor=#000000;" vertex="1">
          <mxGeometry x="156.0" y="66.0" width="8" height="8" as="geometry" />
        </mxCell>
        <mxCell id="test-6" value="" parent="1" style="html=1;curved=0;rounded=0;align=center;verticalAlign=bottom;endArrow=block;dashed=0;" edge="1" source="test-5" target="test-3">
          <mxGeometry relative="1" as="geometry">
            <mxPoint as="targetPoint" />
            <mxPoint as="sourcePoint" />
            <Array as="points">
              <mxPoint x="220.0" y="70" />
            </Array>
          </mxGeometry>
        </mxCell>
        <mxCell id="test-7" value="" parent="1" style="ellipse;html=1;aspect=fixed;fillColor=#000000;" vertex="1">
          <mxGeometry x="396.0" y="76.0" width="8" height="8" as="geometry" />
        </mxCell>
        <mxCell id="test-8" value="" parent="1" style="html=1;curved=0;rounded=0;align=center;verticalAlign=bottom;endArrow=open;dashed=1;" edge="1" source="test-7" target="test-3">
          <mxGeometry relative="1" as="geometry">
            <mxPoint as="targetPoint" />
            <mxPoint as="sourcePoint" />
            <Array as="points">
              <mxPoint x="340.0" y="80" />
            </Array>
          </mxGeometry>
        </mxCell>
        <mxCell id="test-9" value="opt" parent="1" style="shape=umlFrame;whiteSpace=wrap;html=1;pointerEvents=0;width=60;height=20;" vertex="1">
          <mxGeometry x="130.0" y="90" width="300.0" height="125" as="geometry" />
        </mxCell>
        <mxCell id="test-10" value="[frame]" parent="test-9" style="text;html=1;rounded=0;labelBackgroundColor=default;align=left;verticalAlign=middle;" vertex="1">
          <mxGeometry x="10" y="25" width="100" height="20" as="geometry" />
        </mxCell>
        <mxCell id="test-11" value="" parent="test-3" style="html=1;points=[[0,0,0,0,5],[0,1,0,0,-5],[1,0,0,0,5],[1,1,0,0,-5]];perimeter=orthogonalPerimeter;outlineConnect=0;targetShapes=umlLifeline;portConstraint=eastwest;newEdgeStyle={&quot;curved&quot;:0,&quot;rounded&quot;:0};" vertex="1">
          <mxGeometry x="75.0" y="145" width="10" height="25" as="geometry" />
        </mxCell>
        <mxCell id="test-12" value="" parent="1" style="ellipse;html=1;aspect=fixed;fillColor=#000000;" vertex="1">
          <mxGeometry x="156.0" y="146.0" width="8" height="8" as="geometry" />
        </mxCell>
        <mxCell id="test-13" value="message" parent="1" style="html=1;curved=0;rounded=0;align=center;verticalAlign=bottom;endArrow=block;dashed=0;entryX=0;entryY=0;entryDx=0;entryDy=5;" edge="1" source="test-12" target="test-11">
          <mxGeometry relative="1" as="geometry">
            <mxPoint as="sourcePoint" />
            <Array as="points">
              <mxPoint x="220.0" y="150" />
            </Array>
          </mxGeometry>
        </mxCell>
        <mxCell id="test-14" value="" parent="test-3" style="html=1;points=[[0,0,0,0,5],[0,1,0,0,-5],[1,0,0,0,5],[1,1,0,0,-5]];perimeter=orthogonalPerimeter;outlineConnect=0;targetShapes=umlLifeline;portConstraint=eastwest;newEdgeStyle={&quot;curved&quot;:0,&quot;rounded&quot;:0};" vertex="1">
          <mxGeometry x="75.0" y="180" width="10" height="25" as="geometry" />
        </mxCell>
        <mxCell id="test-15" value="" parent="1" style="ellipse;html=1;aspect=fixed;fillColor=#000000;" vertex="1">
          <mxGeometry x="396.0" y="181.0" width="8" height="8" as="geometry" />
        </mxCell>
        <mxCell id="test-16" value="message" parent="1" style="html=1;curved=0;rounded=0;align=center;verticalAlign=bottom;endArrow=block;dashed=0;entryX=1;entryY=0;entryDx=0;entryDy=5;" edge="1" source="test-15" target="test-14">
          <mxGeometry relative="1" as="geometry">
            <mxPoint as="sourcePoint" />
            <Array as="points">
              <mxPoint x="340.0" y="185" />
            </Array>
          </mxGeometry>
        </mxCell>
        <mxCell id="test-17" value="" parent="test-3" style="html=1;points=[[0,0,0,0,5],[0,1,0,0,-5],[1,0,0,0,5],[1,1,0,0,-5]];perimeter=orthogonalPerimeter;outlineConnect=0;targetShapes=umlLifeline;portConstraint=eastwest;newEdgeStyle={&quot;curved&quot;:0,&quot;rounded&quot;:0};" vertex="1">
          <mxGeometry x="75.0" y="235" width="10" height="50" as="geometry" />
        </mxCell>
        <mxCell id="test-18" value="" parent="1" style="ellipse;html=1;aspect=fixed;fillColor=#000000;" vertex="1">
          <mxGeometry x="156.0" y="236.0" width="8" height="8" as="geometry" />
        </mxCell>
        <mxCell id="test-19" value="message" parent="1" style="html=1;curved=0;rounded=0;align=center;verticalAlign=bottom;endArrow=block;dashed=0;entryX=0;entryY=0;entryDx=0;entryDy=5;" edge="1" source="test-18" target="test-17">
          <mxGeometry relative="1" as="geometry">
            <mxPoint as="sourcePoint" />
            <Array as="points">
              <mxPoint x="220.0" y="240" />
            </Array>
          </mxGeometry>
        </mxCell>
        <mxCell id="test-20" value="" parent="test-3" style="html=1;points=[[0,0,0,0,5],[0,1,0,0,-5],[1,0,0,0,5],[1,1,0,0,-5]];perimeter=orthogonalPerimeter;outlineConnect=0;targetShapes=umlLifeline;portConstraint=eastwest;newEdgeStyle={&quot;curved&quot;:0,&quot;rounded&quot;:0};" vertex="1">
          <mxGeometry x="80.0" y="250" width="10" height="25" as="geometry" />
        </mxCell>
        <mxCell id="test-21" value="" parent="1" style="ellipse;html=1;aspect=fixed;fillColor=#000000;" vertex="1">
          <mxGeometry x="396.0" y="251.0" width="8" height="8" as="geometry" />
        </mxCell>
        <mxCell id="test-22" value="message" parent="1" style="html=1;curved=0;rounded=0;align=center;verticalAlign=bottom;endArrow=block;dashed=0;entryX=1;entryY=0;entryDx=0;entryDy=5;" edge="1" source="test-21" target="test-20">
          <mxGeometry relative="1" as="geometry">
            <mxPoint as="sourcePoint" />
            <Array as="points">
              <mxPoint x="340.0" y="255" />
            </Array>
          </mxGeometry>
        </mxCell>
        <mxCell id="test-23" value="message" parent="1" style="html=1;curved=0;rounded=0;align=center;verticalAlign=bottom;endArrow=block;dashed=0;" edge="1" source="test-2" target="test-20">
          <mxGeometry relative="1" as="geometry">
            <mxPoint as="targetPoint" />
            <mxPoint as="sourcePoint" />
            <Array as="points">
              <mxPoint x="180.0" y="265" />
            </Array>
          </mxGeometry>
        </mxCell>
        <mxCell id="test-24" value="" parent="test-3" style="html=1;points=[[0,0,0,0,5],[0,1,0,0,-5],[1,0,0,0,5],[1,1,0,0,-5]];perimeter=orthogonalPerimeter;outlineConnect=0;targetShapes=umlLifeline;portConstraint=eastwest;newEdgeStyle={&quot;curved&quot;:0,&quot;rounded&quot;:0};" vertex="1">
          <mxGeometry x="75.0" y="295" width="10" height="60" as="geometry" />
        </mxCell>
        <mxCell id="test-25" value="" parent="1" style="ellipse;html=1;aspect=fixed;fillColor=#000000;" vertex="1">
          <mxGeometry x="156.0" y="296.0" width="8" height="8" as="geometry" />
        </mxCell>
        <mxCell id="test-26" value="message" parent="1" style="html=1;curved=0;rounded=0;align=center;verticalAlign=bottom;endArrow=block;dashed=0;entryX=0;entryY=0;entryDx=0;entryDy=5;" edge="1" source="test-25" target="test-24">
          <mxGeometry relative="1" as="geometry">
            <mxPoint as="sourcePoint" />
            <Array as="points">
              <mxPoint x="220.0" y="300" />
            </Array>
          </mxGeometry>
        </mxCell>
        <mxCell id="test-27" value="" parent="test-3" style="html=1;points=[[0,0,0,0,5],[0,1,0,0,-5],[1,0,0,0,5],[1,1,0,0,-5]];perimeter=orthogonalPerimeter;outlineConnect=0;targetShapes=umlLifeline;portConstraint=eastwest;newEdgeStyle={&quot;curved&quot;:0,&quot;rounded&quot;:0};" vertex="1">
          <mxGeometry x="80.0" y="310" width="10" height="35" as="geometry" />
        </mxCell>
        <mxCell id="test-28" value="" parent="1" style="ellipse;html=1;aspect=fixed;fillColor=#000000;" vertex="1">
          <mxGeometry x="396.0" y="311.0" width="8" height="8" as="geometry" />
        </mxCell>
        <mxCell id="test-29" value="message" parent="1" style="html=1;curved=0;rounded=0;align=center;verticalAlign=bottom;endArrow=block;dashed=0;entryX=1;entryY=0;entryDx=0;entryDy=5;" edge="1" source="test-28" target="test-27">
          <mxGeometry relative="1" as="geometry">
            <mxPoint as="sourcePoint" />
            <Array as="points">
              <mxPoint x="340.0" y="315" />
            </Array>
          </mxGeometry>
        </mxCell>
        <mxCell id="test-30" value="message" parent="1" style="html=1;curved=0;rounded=0;align=center;verticalAlign=bottom;endArrow=block;dashed=0;" edge="1" source="test-4" target="test-27">
          <mxGeometry relative="1" as="geometry">
            <mxPoint as="targetPoint" />
            <mxPoint as="sourcePoint" />
            <Array as="points">
              <mxPoint x="380.0" y="335" />
            </Array>
          </mxGeometry>
        </mxCell>
        <mxCell id="test-31" value="" parent="test-3" style="html=1;points=[[0,0,0,0,5],[0,1,0,0,-5],[1,0,0,0,5],[1,1,0,0,-5]];perimeter=orthogonalPerimeter;outlineConnect=0;targetShapes=umlLifeline;portConstraint=eastwest;newEdgeStyle={&quot;curved&quot;:0,&quot;rounded&quot;:0};" vertex="1">
          <mxGeometry x="75.0" y="365" width="10" height="65" as="geometry" />
        </mxCell>
        <mxCell id="test-32" value="" parent="1" style="ellipse;html=1;aspect=fixed;fillColor=#000000;" vertex="1">
          <mxGeometry x="156.0" y="366.0" width="8" height="8" as="geometry" />
        </mxCell>
        <mxCell id="test-33" value="message" parent="1" style="html=1;curved=0;rounded=0;align=center;verticalAlign=bottom;endArrow=block;dashed=0;entryX=0;entryY=0;entryDx=0;entryDy=5;" edge="1" source="test-32" target="test-31">
          <mxGeometry relative="1" as="geometry">
            <mxPoint as="sourcePoint" />
            <Array as="points">
              <mxPoint x="220.0" y="370" />
            </Array>
          </mxGeometry>
        </mxCell>
        <mxCell id="test-34" value="" parent="test-3" style="html=1;points=[[0,0,0,0,5],[0,1,0,0,-5],[1,0,0,0,5],[1,1,0,0,-5]];perimeter=orthogonalPerimeter;outlineConnect=0;targetShapes=umlLifeline;portConstraint=eastwest;newEdgeStyle={&quot;curved&quot;:0,&quot;rounded&quot;:0};" vertex="1">
          <mxGeometry x="70.0" y="385" width="10" height="35" as="geometry" />
        </mxCell>
        <mxCell id="test-35" value="" parent="1" style="ellipse;html=1;aspect=fixed;fillColor=#000000;" vertex="1">
          <mxGeometry x="156.0" y="386.0" width="8" height="8" as="geometry" />
        </mxCell>
        <mxCell id="test-36" value="message" parent="1" style="html=1;curved=0;rounded=0;align=center;verticalAlign=bottom;endArrow=block;dashed=0;entryX=0;entryY=0;entryDx=0;entryDy=5;" edge="1" source="test-35" target="test-34">
          <mxGeometry relative="1" as="geometry">
            <mxPoint as="sourcePoint" />
            <Array as="points">
              <mxPoint x="220.0" y="390" />
            </Array>
          </mxGeometry>
        </mxCell>
        <mxCell id="test-37" value="message" parent="1" style="html=1;curved=0;rounded=0;align=center;verticalAlign=bottom;endArrow=block;dashed=0;" edge="1" source="test-2" target="test-34">
          <mxGeometry relative="1" as="geometry">
            <mxPoint as="targetPoint" />
            <mxPoint as="sourcePoint" />
            <Array as="points">
              <mxPoint x="180.0" y="410" />
            </Array>
          </mxGeometry>
        </mxCell>
        <mxCell id="test-38" value="" parent="test-3" style="html=1;points=[[0,0,0,0,5],[0,1,0,0,-5],[1,0,0,0,5],[1,1,0,0,-5]];perimeter=orthogonalPerimeter;outlineConnect=0;targetShapes=umlLifeline;portConstraint=eastwest;newEdgeStyle={&quot;curved&quot;:0,&quot;rounded&quot;:0};" vertex="1">
          <mxGeometry x="75.0" y="440" width="10" height="55" as="geometry" />
        </mxCell>
        <mxCell id="test-39" value="" parent="1" style="ellipse;html=1;aspect=fixed;fillColor=#000000;" vertex="1">
          <mxGeometry x="156.0" y="441.0" width="8" height="8" as="geometry" />
        </mxCell>
        <mxCell id="test-40" value="message" parent="1" style="html=1;curved=0;rounded=0;align=center;verticalAlign=bottom;endArrow=block;dashed=0;entryX=0;entryY=0;entryDx=0;entryDy=5;" edge="1" source="test-39" target="test-38">
          <mxGeometry relative="1" as="geometry">
            <mxPoint as="sourcePoint" />
            <Array as="points">
              <mxPoint x="220.0" y="445" />
            </Array>
          </mxGeometry>
        </mxCell>
        <mxCell id="test-41" value="" parent="test-3" style="html=1;points=[[0,0,0,0,5],[0,1,0,0,-5],[1,0,0,0,5],[1,1,0,0,-5]];perimeter=orthogonalPerimeter;outlineConnect=0;targetShapes=umlLifeline;portConstraint=eastwest;newEdgeStyle={&quot;curved&quot;:0,&quot;rounded&quot;:0};" vertex="1">
          <mxGeometry x="70.0" y="460" width="10" height="25" as="geometry" />
        </mxCell>
        <mxCell id="test-42" value="" parent="1" style="ellipse;html=1;aspect=fixed;fillColor=#000000;" vertex="1">
          <mxGeometry x="156.0" y="461.0" width="8" height="8" as="geometry" />
        </mxCell>
        <mxCell id="test-43" value="message" parent="1" style="html=1;curved=0;rounded=0;align=center;verticalAlign=bottom;endArrow=block;dashed=0;entryX=0;entryY=0;entryDx=0;entryDy=5;" edge="1" source="test-42" target="test-41">
          <mxGeometry relative="1" as="geometry">
            <mxPoint as="sourcePoint" />
            <Array as="points">
              <mxPoint x="220.0" y="465" />
            </Array>
          </mxGeometry>
        </mxCell>
        <mxCell id="test-44" value="message" parent="1" style="html=1;curved=0;rounded=0;align=center;verticalAlign=bottom;endArrow=block;dashed=0;" edge="1" source="test-4" target="test-41">
          <mxGeometry relative="1" as="geometry">
            <mxPoint as="targetPoint" />
            <mxPoint as="sourcePoint" />
            <Array as="points">
              <mxPoint x="380.0" y="475" />
            </Array>
          </mxGeometry>
        </mxCell>
        <mxCell id="test-45" value="" parent="1" style="ellipse;html=1;aspect=fixed;fillColor=#000000;" vertex="1">
          <mxGeometry x="156.0" y="501.0" width="8" height="8" as="geometry" />
        </mxCell>
        <mxCell id="test-46" value="" parent="1" style="html=1;curved=0;rounded=0;align=center;verticalAlign=bottom;endArrow=block;dashed=0;" edge="1" source="test-3" target="test-45">
          <mxGeometry relative="1" as="geometry">
            <mxPoint as="targetPoint" />
            <mxPoint as="sourcePoint" />
            <Array as="points">
              <mxPoint x="220.0" y="505" />
            </Array>
          </mxGeometry>
        </mxCell>
        <mxCell id="test-47" value="" parent="1" style="ellipse;html=1;aspect=fixed;fillColor=#000000;" vertex="1">
          <mxGeometry x="396.0" y="511.0" width="8" height="8" as="geometry" />
        </mxCell>
        <mxCell id="test-48" value="" parent="1" style="html=1;curved=0;rounded=0;align=center;verticalAlign=bottom;endArrow=open;dashed=1;" edge="1" source="test-3" target="test-47">
          <mxGeometry relative="1" as="geometry">
            <mxPoint as="targetPoint" />
            <mxPoint as="sourcePoint" />
            <Array as="points">
              <mxPoint x="340.0" y="515" />
            </Array>
          </mxGeometry>
        </mxCell>
        <mxCell id="test-49" value="opt" parent="1" style="shape=umlFrame;whiteSpace=wrap;html=1;pointerEvents=0;width=60;height=20;" vertex="1">
          <mxGeometry x="130.0" y="525" width="300.0" height="120" as="geometry" />
        </mxCell>
        <mxCell id="test-50" value="[frame]" parent="test-49" style="text;html=1;rounded=0;labelBackgroundColor=default;align=left;verticalAlign=middle;" vertex="1">
          <mxGeometry x="10" y="25" width="100" height="20" as="geometry" />
        </mxCell>
        <mxCell id="test-51" value="" parent="test-3" style="html=1;points=[[0,0,0,0,5],[0,1,0,0,-5],[1,0,0,0,5],[1,1,0,0,-5]];perimeter=orthogonalPerimeter;outlineConnect=0;targetShapes=umlLifeline;portConstraint=eastwest;newEdgeStyle={&quot;curved&quot;:0,&quot;rounded&quot;:0};" vertex="1">
          <mxGeometry x="75.0" y="575" width="10" height="25" as="geometry" />
        </mxCell>
        <mxCell id="test-52" value="" parent="1" style="ellipse;html=1;aspect=fixed;fillColor=#000000;" vertex="1">
          <mxGeometry x="156.0" y="591.0" width="8" height="8" as="geometry" />
        </mxCell>
        <mxCell id="test-53" value="message" parent="1" style="html=1;curved=0;rounded=0;align=center;verticalAlign=bottom;endArrow=block;dashed=0;exitX=0;exitY=1;exitDx=0;exitDy=-5;" edge="1" source="test-51" target="test-52">
          <mxGeometry relative="1" as="geometry">
            <mxPoint as="targetPoint" />
            <Array as="points">
              <mxPoint x="220.0" y="595" />
            </Array>
          </mxGeometry>
        </mxCell>
        <mxCell id="test-54" value="" parent="test-3" style="html=1;points=[[0,0,0,0,5],[0,1,0,0,-5],[1,0,0,0,5],[1,1,0,0,-5]];perimeter=orthogonalPerimeter;outlineConnect=0;targetShapes=umlLifeline;portConstraint=eastwest;newEdgeStyle={&quot;curved&quot;:0,&quot;rounded&quot;:0};" vertex="1">
          <mxGeometry x="75.0" y="610" width="10" height="25" as="geometry" />
        </mxCell>
        <mxCell id="test-55" value="" parent="1" style="ellipse;html=1;aspect=fixed;fillColor=#000000;" vertex="1">
          <mxGeometry x="396.0" y="626.0" width="8" height="8" as="geometry" />
        </mxCell>
        <mxCell id="test-56" value="message" parent="1" style="html=1;curved=0;rounded=0;align=center;verticalAlign=bottom;endArrow=block;dashed=0;exitX=1;exitY=1;exitDx=0;exitDy=-5;" edge="1" source="test-54" target="test-55">
          <mxGeometry relative="1" as="geometry">
            <mxPoint as="targetPoint" />
            <Array as="points">
              <mxPoint x="340.0" y="630" />
            </Array>
          </mxGeometry>
        </mxCell>
        <mxCell id="test-57" value="" parent="test-3" style="html=1;points=[[0,0,0,0,5],[0,1,0,0,-5],[1,0,0,0,5],[1,1,0,0,-5]];perimeter=orthogonalPerimeter;outlineConnect=0;targetShapes=umlLifeline;portConstraint=eastwest;newEdgeStyle={&quot;curved&quot;:0,&quot;rounded&quot;:0};" vertex="1">
          <mxGeometry x="75.0" y="665" width="10" height="110" as="geometry" />
        </mxCell>
        <mxCell id="test-58" value="" parent="1" style="ellipse;html=1;aspect=fixed;fillColor=#000000;" vertex="1">
          <mxGeometry x="156.0" y="671.0" width="8" height="8" as="geometry" />
        </mxCell>
        <mxCell id="test-59" value="message" parent="1" style="html=1;curved=0;rounded=0;align=center;verticalAlign=bottom;endArrow=block;dashed=0;" edge="1" source="test-57" target="test-58">
          <mxGeometry relative="1" as="geometry">
            <mxPoint as="targetPoint" />
            <mxPoint as="sourcePoint" />
            <Array as="points">
              <mxPoint x="220.0" y="675" />
            </Array>
          </mxGeometry>
        </mxCell>
        <mxCell id="test-60" value="" parent="1" style="ellipse;html=1;aspect=fixed;fillColor=#000000;" vertex="1">
          <mxGeometry x="156.0" y="691.0" width="8" height="8" as="geometry" />
        </mxCell>
        <mxCell id="test-61" value="message" parent="1" style="html=1;curved=0;rounded=0;align=center;verticalAlign=bottom;endArrow=block;dashed=0;" edge="1" source="test-57" target="test-60">
          <mxGeometry relative="1" as="geometry">
            <mxPoint as="targetPoint" />
            <mxPoint as="sourcePoint" />
            <Array as="points">
              <mxPoint x="220.0" y="695" />
            </Array>
          </mxGeometry>
        </mxCell>
        <mxCell id="test-62" value="message" parent="1" style="html=1;curved=0;rounded=0;align=center;verticalAlign=bottom;endArrow=block;dashed=0;" edge="1" source="test-2" target="test-57">
          <mxGeometry relative="1" as="geometry">
            <mxPoint as="targetPoint" />
            <mxPoint as="sourcePoint" />
            <Array as="points">
              <mxPoint x="180.0" y="715" />
            </Array>
          </mxGeometry>
        </mxCell>
        <mxCell id="test-63" value="" parent="1" style="ellipse;html=1;aspect=fixed;fillColor=#000000;" vertex="1">
          <mxGeometry x="156.0" y="731.0" width="8" height="8" as="geometry" />
        </mxCell>
        <mxCell id="test-64" value="message" parent="1" style="html=1;curved=0;rounded=0;align=center;verticalAlign=bottom;endArrow=block;dashed=0;" edge="1" source="test-57" target="test-63">
          <mxGeometry relative="1" as="geometry">
            <mxPoint as="targetPoint" />
            <mxPoint as="sourcePoint" />
            <Array as="points">
              <mxPoint x="220.0" y="735" />
            </Array>
          </mxGeometry>
        </mxCell>
        <mxCell id="test-65" value="" parent="1" style="ellipse;html=1;aspect=fixed;fillColor=#000000;" vertex="1">
          <mxGeometry x="156.0" y="751.0" width="8" height="8" as="geometry" />
        </mxCell>
        <mxCell id="test-66" value="message" parent="1" style="html=1;curved=0;rounded=0;align=center;verticalAlign=bottom;endArrow=block;dashed=0;" edge="1" source="test-57" target="test-65">
          <mxGeometry relative="1" as="geometry">
            <mxPoint as="targetPoint" />
            <mxPoint as="sourcePoint" />
            <Array as="points">
              <mxPoint x="220.0" y="755" />
            </Array>
          </mxGeometry>
        </mxCell>
        <mxCell id="test-67" value="message" parent="1" style="html=1;curved=0;rounded=0;align=center;verticalAlign=bottom;endArrow=block;dashed=0;" edge="1" source="test-4" target="test-57">
          <mxGeometry relative="1" as="geometry">
            <mxPoint as="targetPoint" />
            <mxPoint as="sourcePoint" />
            <Array as="points">
              <mxPoint x="380.0" y="765" />
            </Array>
          </mxGeometry>
        </mxCell>
      </root>
    </mxGraphModel>
  </diagram>
</mxfile>
